<svg width="299" height="66" viewBox="0 0 299 66" fill="none" xmlns="http://www.w3.org/2000/svg">
<path fill-rule="evenodd" clip-rule="evenodd" d="M201.243 54.2513L180.477 36.2827C180.823 39.0471 179.785 42.1571 177.362 44.9215C174.593 47.6859 171.132 49.0681 166.286 48.7225C165.594 55.288 161.441 58.0524 154.865 56.6702C153.48 59.4346 151.75 61.8534 149.673 63.5812C147.25 61.8534 145.52 59.4346 144.481 56.6702C137.559 58.0524 133.752 55.288 132.714 48.7225C127.868 49.0681 124.407 47.6859 121.984 44.9215C119.562 42.1571 118.523 39.0471 118.523 36.2827L97.7567 54.2513L19.1899 54.9424L12.6138 55.9791H99.1411L100.179 54.2513L102.948 51.4869L117.485 39.0471C117.831 42.1571 119.215 44.5759 121.638 46.6492C124.061 49.0681 127.176 50.1047 131.329 50.1047C132.021 53.5602 133.406 55.9791 135.829 57.0157C137.905 58.0524 140.674 58.7435 143.789 58.3979C144.135 59.4346 145.174 60.8168 146.212 62.199C147.25 63.5812 148.635 64.9633 149.673 66C149.673 64.9633 149.673 64.2722 149.673 63.9267C149.673 64.2722 149.673 64.9633 149.673 66C150.711 64.9633 151.75 63.5812 152.788 62.199C154.172 60.8168 154.865 59.4346 155.557 58.3979C158.326 58.7435 161.095 58.0524 163.517 57.0157C165.94 55.9791 167.325 53.5602 167.671 50.1047C171.824 50.1047 175.285 49.0681 177.362 46.6492C179.785 44.5759 181.169 42.1571 181.515 39.0471L196.052 51.4869L199.167 54.2513L200.205 55.9791H286.386L280.156 54.9424L201.243 54.2513ZM298.5 52.178H212.665H202.974C194.321 44.9215 186.015 37.3194 177.362 30.0628C174.939 28.3351 172.17 27.644 168.709 27.9895C165.248 28.6806 162.825 30.4084 161.787 33.5183C161.441 36.6283 162.479 38.7016 164.556 39.3927C166.979 40.4293 168.709 40.0838 169.747 39.0471C169.401 38.356 168.709 38.0105 167.671 38.0105C166.286 38.0105 165.94 36.9738 165.594 35.5916C165.594 33.5183 166.286 32.1361 168.363 31.445C170.094 31.0995 171.824 31.0995 172.862 31.7906C174.939 32.8272 176.323 34.2094 177.016 35.9372C177.708 38.0105 177.016 40.0838 175.285 42.5026C174.247 44.2304 172.17 45.6126 169.401 45.9581C166.979 46.6492 164.21 46.6492 161.441 45.6126C160.402 44.9215 159.364 44.2304 158.326 43.5393C157.287 42.5026 155.903 40.7749 154.172 37.6649C152.788 37.6649 151.404 37.3194 149.673 37.6649C147.943 37.3194 146.558 37.6649 145.174 37.6649C143.097 40.7749 141.713 42.5026 140.674 43.5393C139.636 44.2304 138.598 44.9215 137.559 45.6126C135.136 46.6492 132.368 46.6492 129.599 45.9581C126.83 45.6126 125.099 44.2304 123.715 42.5026C121.984 40.0838 121.638 38.0105 122.33 35.9372C123.023 34.2094 124.407 32.8272 126.484 31.7906C127.522 31.0995 128.907 31.0995 130.983 31.445C132.714 32.1361 133.752 33.5183 133.406 35.5916C133.406 36.9738 132.714 38.0105 131.675 38.0105C130.637 38.0105 129.945 38.356 129.599 39.0471C130.637 40.0838 132.368 40.4293 134.444 39.3927C136.867 38.7016 137.905 36.6283 137.559 33.5183C136.175 30.4084 133.752 28.6806 130.637 27.9895C127.176 27.644 124.061 28.3351 121.638 30.0628C113.332 37.3194 104.679 44.9215 96.0261 52.178H86.3351H0.5L93.2573 46.3037C101.218 39.3927 109.524 32.1361 118.523 24.534C123.369 20.733 128.56 20.0419 134.098 22.1152C139.982 24.534 142.751 27.2984 143.443 31.0995C144.135 32.4817 144.828 33.1728 145.52 33.1728C146.558 33.1728 147.596 33.1728 147.943 32.4817C146.904 31.0995 146.558 29.7173 147.25 28.3351C147.596 27.644 147.25 27.2984 146.558 27.2984C146.212 27.2984 145.866 27.2984 145.866 27.644C145.52 27.644 145.52 27.644 145.174 27.644C144.135 27.2984 143.789 26.6073 144.828 25.9162C145.866 24.534 147.596 24.534 149.673 25.9162C151.404 24.534 153.134 24.534 154.519 25.9162C155.211 26.6073 155.211 27.2984 154.172 27.644C153.826 27.644 153.48 27.644 153.48 27.644C153.134 27.2984 152.788 27.2984 152.788 27.2984C151.75 27.2984 151.75 27.644 152.096 28.3351C152.788 29.7173 152.442 31.0995 151.057 32.4817C151.75 33.1728 152.442 33.1728 153.48 33.1728C154.172 33.1728 155.211 32.4817 155.903 31.0995C156.249 27.2984 159.364 24.534 164.902 22.1152C170.44 20.0419 175.977 20.733 180.823 24.534C189.476 32.1361 198.128 39.3927 206.089 46.3037L298.5 52.178ZM149.673 66C149.327 66 149.327 65.3089 149.673 63.9267C149.673 65.3089 149.673 66 149.673 66ZM149.673 59.089C148.289 57.3613 147.596 55.288 147.943 52.8691C148.289 50.4503 148.635 47.6859 149.673 44.9215V45.267V44.9215C150.365 47.6859 151.057 50.4503 151.404 52.8691C151.404 55.288 151.057 57.3613 149.673 59.089ZM139.636 46.3037C139.29 47.3403 139.29 48.0314 139.636 48.7225C139.982 49.4136 141.02 49.4136 142.751 48.7225C143.789 48.377 144.481 46.6492 144.828 43.8848C145.174 41.1204 146.904 39.7382 149.673 39.3927C152.442 39.7382 153.826 41.1204 154.172 43.8848C154.519 46.6492 155.211 48.377 156.595 48.7225C157.98 49.4136 159.018 49.4136 159.364 48.7225C160.056 48.0314 160.056 47.3403 159.364 46.3037C161.441 46.6492 162.479 47.3403 162.825 48.377C163.517 49.7592 163.171 51.1414 162.133 52.8691C161.441 53.9058 160.402 54.2513 158.326 54.5969C156.595 54.9424 154.865 54.2513 153.48 52.8691C152.096 51.1414 151.75 48.7225 151.75 45.6126C151.75 43.8848 151.057 42.8482 149.673 42.5026C147.943 42.8482 147.25 43.8848 147.25 45.6126C147.596 48.7225 146.904 51.1414 145.52 52.8691C144.135 54.2513 142.751 54.9424 140.674 54.5969C138.944 54.2513 137.559 53.9058 137.213 52.8691C136.175 51.1414 135.829 49.7592 136.175 48.377C136.521 47.3403 137.905 46.6492 139.636 46.3037ZM137.559 22.4607C135.483 22.8063 135.136 22.4607 136.175 21.0785C136.521 20.733 136.867 20.733 137.559 20.733C137.905 20.733 138.251 20.733 138.598 20.3874C137.559 19.3508 136.521 19.3508 135.483 19.6963C134.79 20.0419 133.752 20.0419 133.06 19.6963C132.368 19.3508 132.021 19.0052 132.021 18.3141C132.021 17.2775 132.714 16.9319 133.752 16.5864C136.521 15.8953 139.982 17.623 144.135 21.4241C144.135 20.3874 143.443 19.3508 142.751 18.3141C141.713 17.623 141.02 16.5864 139.982 15.8953C139.29 15.5497 138.251 15.2042 137.213 15.2042C136.175 15.2042 135.483 14.8586 135.136 14.8586C134.098 14.1675 133.752 13.4764 134.444 12.4398C134.79 11.4031 135.483 11.0576 136.175 10.712C137.213 10.712 138.598 11.4031 140.328 12.7853C142.405 14.1675 144.135 16.5864 146.212 19.6963C146.212 17.9686 145.52 16.2408 144.135 14.5131C142.751 12.7853 141.366 11.4031 139.636 10.0209C138.944 8.98429 138.598 8.29319 139.29 7.60209C139.982 6.91099 141.02 6.56544 142.059 6.56544C143.443 6.56544 144.828 8.63874 146.212 12.7853C146.558 13.822 146.558 15.2042 146.904 16.9319C147.25 18.6597 147.596 19.6963 147.943 20.0419C148.635 17.623 147.596 12.7853 145.174 5.5288C144.828 4.8377 144.828 3.80105 145.52 3.10995C145.866 3.10995 146.212 3.10995 146.212 3.10995C146.558 3.10995 146.904 3.10995 147.25 3.10995C147.596 3.10995 147.596 3.10995 147.596 2.41885C147.25 1.72775 147.596 1.03665 147.943 0.34555C148.289 0 148.981 0 149.673 0C150.019 0 150.711 0 151.404 0.34555C151.75 1.03665 151.75 1.72775 151.404 2.41885C151.404 3.10995 151.75 3.10995 152.096 3.10995C152.442 3.10995 152.442 3.10995 152.788 3.10995C153.134 3.10995 153.48 3.10995 153.48 3.10995C154.172 3.80105 154.172 4.8377 153.826 5.5288C151.404 12.7853 150.711 17.623 151.404 20.0419C151.75 19.6963 152.096 18.6597 152.096 16.9319C152.442 15.2042 152.788 13.822 153.134 12.7853C154.519 8.63874 155.557 6.56544 156.941 6.56544C158.326 6.56544 159.018 6.91099 159.71 7.60209C160.402 8.29319 160.402 8.98429 159.364 10.0209C157.98 11.4031 156.595 12.7853 155.211 14.5131C153.826 16.2408 153.134 17.9686 153.134 19.6963C154.865 16.5864 156.941 14.1675 158.672 12.7853C160.749 11.4031 162.133 10.712 162.825 10.712C163.864 11.0576 164.556 11.4031 164.902 12.4398C165.248 13.4764 164.902 14.1675 164.21 14.8586C163.517 14.8586 162.825 15.2042 161.787 15.2042C161.095 15.2042 160.056 15.5497 159.364 15.8953C158.326 16.5864 157.287 17.623 156.595 18.3141C155.557 19.3508 155.211 20.3874 154.865 21.4241C159.364 17.623 162.825 15.8953 165.594 16.5864C166.632 16.9319 166.979 17.2775 166.979 18.3141C166.979 19.0052 166.979 19.3508 166.286 19.6963C165.248 20.0419 164.556 20.0419 163.517 19.6963C162.479 19.3508 161.441 19.3508 160.402 20.3874C160.749 20.733 161.095 20.733 161.787 20.733C162.133 20.733 162.825 20.733 163.171 21.0785C164.21 22.4607 163.517 22.8063 161.787 22.4607C159.71 21.7696 157.634 22.4607 156.249 24.534C155.211 23.4974 154.172 23.1518 153.134 23.4974C151.75 23.8429 150.711 23.8429 149.673 24.1885C148.289 23.8429 147.25 23.8429 146.212 23.4974C145.174 23.1518 143.789 23.4974 142.751 24.534C141.366 22.4607 139.636 21.7696 137.559 22.4607Z" fill="#CC9933"/>
</svg>
