<svg width="543" height="35" viewBox="0 0 543 35" fill="none" xmlns="http://www.w3.org/2000/svg">
<path d="M287.166 22.1875L282.524 17.5L287.166 12.8125L291.885 17.5L287.166 22.1875Z" fill="#CC9933"/>
<path d="M303.644 24.6094L296.526 17.5L303.644 10.3125L310.684 17.5L303.644 24.6094Z" fill="#CC9933"/>
<path d="M321.592 22.1875L316.95 17.5L321.592 12.8125L326.233 17.5L321.592 22.1875Z" fill="#CC9933"/>
<path d="M332.5 16.9531L340.081 10.3906L346.579 18.0469L338.998 24.6094L332.5 16.9531Z" fill="#CC9933"/>
<path d="M238.041 12.8125L242.683 17.5L238.041 22.1875L233.322 17.5L238.041 12.8125Z" fill="#CC9933"/>
<path d="M220.016 10.3125L227.133 17.5L220.016 24.6094L212.976 17.5L220.016 10.3125Z" fill="#CC9933"/>
<path d="M202.068 12.8125L206.71 17.5L202.068 22.1875L197.426 17.5L202.068 12.8125Z" fill="#CC9933"/>
<path d="M191.16 18.0469L183.579 24.6094L177.08 16.9531L184.662 10.3906L191.16 18.0469Z" fill="#CC9933"/>
<path d="M245.623 17.5L262.874 0L280.203 17.5L262.874 35L245.623 17.5Z" fill="#CC9933"/>
<path d="M342.015 14.4531L543 16.875V18.125L342.015 20.5469V14.4531Z" fill="#CC9933"/>
<path d="M181.49 20.5469L0 18.125V16.875L181.49 14.4531V20.5469Z" fill="#CC9933"/>
</svg>
