<?xml version="1.0" encoding="UTF-8"?>
<!DOCTYPE svg PUBLIC "-//W3C//DTD SVG 1.1//EN" "http://www.w3.org/Graphics/SVG/1.1/DTD/svg11.dtd">
<!-- Creator: CorelDRAW X8 -->
<svg xmlns="http://www.w3.org/2000/svg" xml:space="preserve" width="2.03789in" height="0.581472in" version="1.1" style="shape-rendering:geometricPrecision; text-rendering:geometricPrecision; image-rendering:optimizeQuality; fill-rule:evenodd; clip-rule:evenodd"
viewBox="0 0 1135 324"
 xmlns:xlink="http://www.w3.org/1999/xlink">
 <defs>
  <style type="text/css">
   <![CDATA[
    .str0 {stroke:white;stroke-width:11.6009;stroke-linecap:round;stroke-linejoin:round}
    .fil0 {fill:none}
    .fil1 {fill:black}
    .fil2 {fill:yellow}
    .fil3 {fill:white;fill-rule:nonzero}
   ]]>
  </style>
 </defs>
 <g id="Layer_x0020_1">
  <metadata id="CorelCorpID_0Corel-Layer"/>
  <g id="_2301579272528">
   <g>
    <path class="fil0 str0" d="M1072 54l14 -10c3,-3 7,-3 11,-2 3,1 6,4 7,8 1,2 3,9 4,11 1,0 2,1 3,1 4,1 7,3 10,5 5,2 7,8 5,13l-3 11c0,2 -1,4 -3,5 1,1 2,1 2,2 4,5 8,9 7,15 -1,6 -5,9 -8,14 -4,5 -8,16 -12,27 0,0 0,0 0,0 6,-2 12,0 15,5 12,23 -30,57 -51,45 -2,-1 -4,-2 -5,-4 -1,-2 -2,-4 -2,-6 -9,-24 15,-54 11,-67 -1,-5 0,-10 4,-13l21 -15c-17,0 -26,-5 -34,-21 -5,17 -13,33 -28,41 -2,1 -7,4 -8,6 -2,2 -4,12 -4,15 -3,10 -4,17 -3,25 7,-3 13,-9 18,-13 2,-2 5,-3 9,-2 3,0 6,2 8,4 3,5 4,10 3,16 -2,10 -11,15 -19,21 -11,9 -20,18 -36,18 -4,0 -8,-2 -10,-6 -1,1 -2,1 -2,2 -10,8 -25,15 -37,8 -2,-1 -3,-3 -4,-5 -4,-9 -3,-21 -1,-33 -5,6 -9,11 -13,16 -11,15 -11,15 -29,15 -3,0 -6,-2 -9,-4 -2,-2 -3,-5 -3,-9 1,-25 15,-52 32,-71 11,-11 24,-21 39,-26 10,-3 27,-5 31,9 1,1 1,3 1,5 0,0 0,0 0,0 0,0 0,0 0,0 2,-5 4,-11 7,-16 9,-20 26,-64 52,-64 6,1 11,6 11,12 0,4 0,8 -1,12zm-801 130c-6,9 -16,16 -26,20 -29,12 -52,-1 -54,-29 -3,4 -7,8 -11,12 -32,28 -79,33 -119,30 -21,-2 -52,-8 -55,-33 -2,-13 6,-26 15,-35 7,-7 16,-14 26,-16 3,-1 7,-1 10,2 3,2 4,5 4,8l1 9c0,4 -1,8 -4,10 -2,1 -10,9 -9,11 0,3 11,7 14,7 12,3 26,3 39,2 14,-2 43,-9 47,-26 -7,-4 -20,-5 -26,-6 -16,-3 -39,-5 -49,-20 -15,-22 10,-53 23,-70 11,-12 40,-42 54,-47 26,-9 40,12 36,36 -4,22 -13,31 -36,32 -5,0 -9,-3 -11,-7l-2 -6c-9,6 -17,17 -22,24 -1,2 -4,7 -3,9 2,3 18,5 22,6 16,2 50,6 61,17 3,4 5,7 6,11 3,-4 5,-9 8,-12 9,-13 26,-32 44,-29 5,1 10,3 13,7 2,2 3,3 4,6 3,18 -5,31 -16,45 -3,5 -8,9 -13,13 0,0 0,0 0,0 9,-3 18,-6 27,-1 1,1 2,1 3,2 3,-13 11,-27 8,-38 -1,-4 0,-7 3,-10 6,-8 19,-20 30,-22 5,-1 11,2 13,7 1,3 2,7 2,11 8,-9 17,-17 29,-18 6,-1 12,3 12,10 1,7 0,15 -2,23 9,-12 21,-23 38,-22 5,0 10,4 11,10 2,12 -2,29 -6,44 4,-1 9,0 12,3l3 3c14,-40 53,-86 91,-69 4,2 6,5 7,9 0,1 0,2 0,3 2,2 3,6 2,9 0,11 -6,24 -9,35 -1,3 -3,8 -4,14 1,-1 3,-1 4,-1 1,-7 3,-13 5,-18 2,-8 4,-15 6,-22 0,-1 1,-3 1,-5 -2,-4 -3,-8 -3,-13 0,-5 2,-9 7,-11 1,-1 6,-3 8,-4 0,-1 1,-3 1,-3 1,-4 3,-7 4,-10 7,-12 13,-23 29,-24 3,-1 7,0 10,3 2,3 3,7 2,11 -1,5 -9,17 -10,22 3,2 11,2 14,2 3,0 6,1 8,3 3,3 4,5 4,9l0 11c0,6 -4,10 -10,11 -6,1 -24,3 -31,5 -3,6 -6,19 -8,30 0,0 0,0 0,-1 7,-4 13,-9 21,-11 5,-2 11,1 13,5l4 7c3,5 1,11 -3,15 -16,12 -36,30 -57,30 -3,0 -6,-1 -8,-4 -1,-1 -3,-3 -3,-4 -3,2 -6,4 -8,6 -9,6 -22,12 -32,7 -3,-1 -4,-3 -6,-5 -4,-9 -4,-20 -2,-32 -7,9 -15,19 -23,26 -2,1 -4,2 -7,2l-11 1c-3,0 -6,-1 -9,-4 -2,-2 -3,-5 -3,-8 0,-2 0,-3 0,-4 -10,9 -26,18 -37,19 -5,0 -10,-3 -12,-7 -3,-7 -1,-20 1,-30 -2,2 -4,4 -5,5 -8,9 -20,22 -31,27 -4,2 -9,1 -13,-2l-7 -7c-2,-3 -3,-6 -3,-9 0,-3 0,-6 0,-8l-15 18c-4,4 -11,5 -16,2 -4,-3 -7,-7 -9,-12 0,-1 -1,-1 -1,-2zm554 -170c23,-1 60,-1 73,17 2,3 3,6 2,9 -5,23 -34,41 -53,52 -5,3 -19,11 -32,18 12,1 23,0 34,1 10,1 20,3 30,7 11,4 21,11 23,23 4,33 -66,60 -90,69 -24,8 -94,29 -112,1 -2,-2 -2,-6 -1,-9 5,-17 35,-46 53,-48l2 -12c-3,-2 -5,-4 -8,-9 -2,-4 -2,-8 0,-12 3,-6 7,-9 12,-13 1,-11 4,-23 7,-34 1,-6 3,-11 5,-16 -1,0 -2,0 -3,0 -13,2 -28,3 -39,-6 -3,-2 -4,-5 -4,-8 -1,-13 6,-21 14,-29 4,-3 8,-4 12,-3 10,3 26,7 37,5 6,-2 10,-5 15,-8 3,-2 7,-3 10,-3 5,-1 9,1 11,5l2 3zm-41 167c9,-2 17,-4 23,-6 16,-4 32,-10 47,-18 3,-2 11,-6 16,-11 -8,-3 -23,-4 -28,-4 -11,0 -23,0 -35,2 -5,0 -9,1 -13,2l-5 1c-1,5 -2,13 -3,17 -1,5 -1,10 -2,16 0,0 0,0 0,1zm33 -130c-4,9 -9,21 -13,31 17,-8 39,-21 51,-31 -11,-1 -27,0 -38,0z"/>
    <path id="1" class="fil1" d="M1072 54l14 -10c3,-3 7,-3 11,-2 3,1 6,4 7,8 1,2 3,9 4,11 1,0 2,1 3,1 4,1 7,3 10,5 5,2 7,8 5,13l-3 11c0,2 -1,4 -3,5 1,1 2,1 2,2 4,5 8,9 7,15 -1,6 -5,9 -8,14 -4,5 -8,16 -12,27 0,0 0,0 0,0 6,-2 12,0 15,5 12,23 -30,57 -51,45 -2,-1 -4,-2 -5,-4 -1,-2 -2,-4 -2,-6 -9,-24 15,-54 11,-67 -1,-5 0,-10 4,-13l21 -15c-17,0 -26,-5 -34,-21 -5,17 -13,33 -28,41 -2,1 -7,4 -8,6 -2,2 -4,12 -4,15 -3,10 -4,17 -3,25 7,-3 13,-9 18,-13 2,-2 5,-3 9,-2 3,0 6,2 8,4 3,5 4,10 3,16 -2,10 -11,15 -19,21 -11,9 -20,18 -36,18 -4,0 -8,-2 -10,-6 -1,1 -2,1 -2,2 -10,8 -25,15 -37,8 -2,-1 -3,-3 -4,-5 -4,-9 -3,-21 -1,-33 -5,6 -9,11 -13,16 -11,15 -11,15 -29,15 -3,0 -6,-2 -9,-4 -2,-2 -3,-5 -3,-9 1,-25 15,-52 32,-71 11,-11 24,-21 39,-26 10,-3 27,-5 31,9 1,1 1,3 1,5 0,0 0,0 0,0 0,0 0,0 0,0 2,-5 4,-11 7,-16 9,-20 26,-64 52,-64 6,1 11,6 11,12 0,4 0,8 -1,12zm-801 130c-6,9 -16,16 -26,20 -29,12 -52,-1 -54,-29 -3,4 -7,8 -11,12 -32,28 -79,33 -119,30 -21,-2 -52,-8 -55,-33 -2,-13 6,-26 15,-35 7,-7 16,-14 26,-16 3,-1 7,-1 10,2 3,2 4,5 4,8l1 9c0,4 -1,8 -4,10 -2,1 -10,9 -9,11 0,3 11,7 14,7 12,3 26,3 39,2 14,-2 43,-9 47,-26 -7,-4 -20,-5 -26,-6 -16,-3 -39,-5 -49,-20 -15,-22 10,-53 23,-70 11,-12 40,-42 54,-47 26,-9 40,12 36,36 -4,22 -13,31 -36,32 -5,0 -9,-3 -11,-7l-2 -6c-9,6 -17,17 -22,24 -1,2 -4,7 -3,9 2,3 18,5 22,6 16,2 50,6 61,17 3,4 5,7 6,11 3,-4 5,-9 8,-12 9,-13 26,-32 44,-29 5,1 10,3 13,7 2,2 3,3 4,6 3,18 -5,31 -16,45 -3,5 -8,9 -13,13 0,0 0,0 0,0 9,-3 18,-6 27,-1 1,1 2,1 3,2 3,-13 11,-27 8,-38 -1,-4 0,-7 3,-10 6,-8 19,-20 30,-22 5,-1 11,2 13,7 1,3 2,7 2,11 8,-9 17,-17 29,-18 6,-1 12,3 12,10 1,7 0,15 -2,23 9,-12 21,-23 38,-22 5,0 10,4 11,10 2,12 -2,29 -6,44 4,-1 9,0 12,3l3 3c14,-40 53,-86 91,-69 4,2 6,5 7,9 0,1 0,2 0,3 2,2 3,6 2,9 0,11 -6,24 -9,35 -1,3 -3,8 -4,14 1,-1 3,-1 4,-1 1,-7 3,-13 5,-18 2,-8 4,-15 6,-22 0,-1 1,-3 1,-5 -2,-4 -3,-8 -3,-13 0,-5 2,-9 7,-11 1,-1 6,-3 8,-4 0,-1 1,-3 1,-3 1,-4 3,-7 4,-10 7,-12 13,-23 29,-24 3,-1 7,0 10,3 2,3 3,7 2,11 -1,5 -9,17 -10,22 3,2 11,2 14,2 3,0 6,1 8,3 3,3 4,5 4,9l0 11c0,6 -4,10 -10,11 -6,1 -24,3 -31,5 -3,6 -6,19 -8,30 0,0 0,0 0,-1 7,-4 13,-9 21,-11 5,-2 11,1 13,5l4 7c3,5 1,11 -3,15 -16,12 -36,30 -57,30 -3,0 -6,-1 -8,-4 -1,-1 -3,-3 -3,-4 -3,2 -6,4 -8,6 -9,6 -22,12 -32,7 -3,-1 -4,-3 -6,-5 -4,-9 -4,-20 -2,-32 -7,9 -15,19 -23,26 -2,1 -4,2 -7,2l-11 1c-3,0 -6,-1 -9,-4 -2,-2 -3,-5 -3,-8 0,-2 0,-3 0,-4 -10,9 -26,18 -37,19 -5,0 -10,-3 -12,-7 -3,-7 -1,-20 1,-30 -2,2 -4,4 -5,5 -8,9 -20,22 -31,27 -4,2 -9,1 -13,-2l-7 -7c-2,-3 -3,-6 -3,-9 0,-3 0,-6 0,-8l-15 18c-4,4 -11,5 -16,2 -4,-3 -7,-7 -9,-12 0,-1 -1,-1 -1,-2zm554 -170c23,-1 60,-1 73,17 2,3 3,6 2,9 -5,23 -34,41 -53,52 -5,3 -19,11 -32,18 12,1 23,0 34,1 10,1 20,3 30,7 11,4 21,11 23,23 4,33 -66,60 -90,69 -24,8 -94,29 -112,1 -2,-2 -2,-6 -1,-9 5,-17 35,-46 53,-48l2 -12c-3,-2 -5,-4 -8,-9 -2,-4 -2,-8 0,-12 3,-6 7,-9 12,-13 1,-11 4,-23 7,-34 1,-6 3,-11 5,-16 -1,0 -2,0 -3,0 -13,2 -28,3 -39,-6 -3,-2 -4,-5 -4,-8 -1,-13 6,-21 14,-29 4,-3 8,-4 12,-3 10,3 26,7 37,5 6,-2 10,-5 15,-8 3,-2 7,-3 10,-3 5,-1 9,1 11,5l2 3zm-41 167c9,-2 17,-4 23,-6 16,-4 32,-10 47,-18 3,-2 11,-6 16,-11 -8,-3 -23,-4 -28,-4 -11,0 -23,0 -35,2 -5,0 -9,1 -13,2l-5 1c-1,5 -2,13 -3,17 -1,5 -1,10 -2,16 0,0 0,0 0,1zm33 -130c-4,9 -9,21 -13,31 17,-8 39,-21 51,-31 -11,-1 -27,0 -38,0z"/>
   </g>
   <g id="_2301579272368">
    <path class="fil2" d="M786 104c2,-17 17,-48 24,-64 14,-1 58,-4 66,7 -3,13 -81,54 -90,57zm-40 -81c-6,6 -11,12 -11,20 13,10 37,1 52,0 -2,10 -8,22 -11,34 -3,12 -6,25 -7,37 -5,4 -10,7 -13,13 4,6 5,6 11,7l-8 56 12 -3c2,-4 6,-55 10,-50l10 -3c6,-1 9,-1 14,-2 20,-2 72,-6 80,14 -10,24 -106,57 -147,48 2,-22 15,-8 16,-28 -14,1 -41,27 -44,39 23,35 240,-47 165,-76 -30,-12 -67,-2 -88,-11 12,-20 95,-46 102,-80 -11,-15 -53,-13 -70,-13l-6 -8c-15,2 -14,22 -67,6z"/>
    <path class="fil2" d="M151 69c17,0 21,-6 25,-22 2,-15 -4,-29 -21,-23 -12,4 -40,33 -49,44 -71,86 29,59 56,81 3,63 -174,56 -112,4l0 -9c-24,6 -65,55 11,61 112,9 142,-56 127,-73 -8,-8 -42,-12 -54,-14 -21,-3 -43,-5 -28,-32 8,-13 22,-30 38,-32l7 15z"/>
    <path class="fil2" d="M930 174c1,-23 17,-47 41,-48l-41 48zm87 5c-6,-16 -4,-25 -1,-41 5,-19 3,-21 18,-29 21,-11 27,-45 27,-67 -17,-1 -34,43 -40,57 -13,26 -19,48 -19,78l-20 12c-5,-19 6,-44 11,-62 5,-13 0,-9 -7,-13 18,-10 -14,-18 -45,16 -15,17 -28,42 -29,64 14,0 12,1 20,-10 7,-9 34,-42 41,-46 -1,16 -14,51 -8,65 11,6 30,-11 36,-21l7 15c12,0 20,-8 29,-15 9,-7 19,-12 13,-21 -9,8 -20,18 -33,18z"/>
    <path class="fil2" d="M292 125c6,23 -22,51 -4,63l50 -56c-3,18 -14,37 -15,54l7 8c17,-9 49,-52 54,-55 4,-3 2,-2 4,-2 0,14 -11,51 -7,60 11,0 30,-13 36,-21l-3 -4 -18 8c1,-17 10,-48 8,-62 -27,-1 -39,45 -63,56 2,-21 19,-50 17,-67 -20,2 -37,42 -55,54 3,-15 17,-41 12,-54 -7,2 -19,12 -23,18z"/>
    <path class="fil2" d="M449 172c1,-23 16,-43 40,-46 -3,8 -33,43 -40,46zm-18 22l11 0c13,-11 34,-47 49,-55 -1,16 -14,51 -7,64 10,5 38,-13 34,-24 -8,-2 -8,12 -17,8 -8,-16 12,-53 13,-69l-9 -3 6 -6c-37,-17 -79,51 -80,85z"/>
    <path class="fil2" d="M537 108c1,21 8,-4 -5,44 -4,13 -11,35 -1,45 17,0 37,-18 50,-27l-4 -7c-12,3 -21,18 -35,18 -5,-11 4,-46 11,-56 6,-4 28,-6 37,-7l0 -11c-47,0 -17,-28 -15,-39 -10,1 -15,10 -19,19 -8,15 -3,13 -19,21z"/>
    <path class="fil2" d="M219 162c-1,-16 7,-48 29,-42 2,13 -18,40 -29,42zm2 10c2,-6 19,-20 25,-27 8,-11 16,-21 13,-36 -19,-19 -55,38 -56,55 -5,53 54,29 60,10 -10,-6 -31,17 -42,-2z"/>
    <path class="fil2" d="M1092 181c0,-14 11,-48 19,-60 7,-10 9,-7 2,-15l-25 18c6,19 -21,51 -10,70 12,6 42,-17 35,-29 -9,3 -9,15 -21,16z"/>
    <path class="fil2" d="M1075 66c9,20 15,23 37,22l3 -11c-14,-8 -16,-3 -22,-24l-18 13z"/>
   </g>
   <g id="_2301579271696">
    <path class="fil3" d="M301 265c3,0 7,1 9,3 3,2 5,5 7,8 1,4 2,10 2,17 0,7 -1,12 -2,16 -2,4 -4,7 -6,9 -3,2 -6,3 -10,3 -4,0 -8,-1 -10,-3 -3,-2 -5,-5 -7,-9 -1,-3 -2,-9 -2,-16 0,-9 2,-16 5,-21 3,-5 8,-7 14,-7zm0 10c-2,0 -3,0 -5,1 -1,1 -2,3 -3,6 0,2 -1,6 -1,11 0,7 1,12 3,14 1,3 3,4 6,4 2,0 4,-1 6,-4 1,-2 2,-7 2,-14 0,-7 -1,-12 -2,-15 -2,-2 -4,-3 -6,-3zm67 16c3,1 4,3 6,5 1,3 2,5 2,8 0,3 -1,6 -3,9 -1,2 -3,4 -6,6 -2,1 -6,2 -10,2 -4,0 -7,-1 -10,-2 -2,-2 -4,-4 -6,-6 -1,-3 -2,-6 -2,-9 0,-3 0,-5 2,-7 1,-3 3,-5 5,-6 -1,-2 -3,-4 -3,-6 -1,-1 -2,-3 -2,-5 0,-3 1,-6 2,-8 2,-2 4,-4 6,-5 2,-1 5,-2 8,-2 3,0 6,1 8,2 3,1 5,3 6,5 1,3 2,5 2,8 0,2 0,3 -1,5 -1,2 -2,4 -4,6zm-11 -16c-2,0 -3,0 -4,1 -1,1 -2,3 -2,5 0,1 1,3 2,4 1,1 2,1 4,1 2,0 3,0 4,-1 1,-1 2,-3 2,-5 0,-1 -1,-3 -2,-4 -1,-1 -2,-1 -4,-1zm0 21c-2,0 -4,1 -6,2 -1,2 -2,3 -2,5 0,3 1,4 2,6 2,1 4,2 6,2 3,0 5,-1 6,-2 2,-1 3,-3 3,-5 0,-3 -1,-4 -3,-6 -1,-1 -3,-2 -6,-2zm49 -13l-10 0c1,-5 2,-10 6,-13 3,-3 7,-5 12,-5 4,0 7,1 9,2 2,1 4,3 6,6 1,2 2,5 2,8 0,3 -1,6 -3,10 -1,3 -5,8 -9,13l-6 6 19 0 0 9 -37 0 0 -5 16 -16c4,-4 7,-8 8,-10 1,-2 2,-5 2,-7 0,-2 -1,-3 -2,-5 -1,-1 -3,-2 -5,-2 -2,0 -4,1 -6,3 -1,1 -2,4 -2,6zm57 0l-10 0c0,-5 2,-10 5,-13 4,-3 8,-5 13,-5 3,0 6,1 9,2 2,1 4,3 6,6 1,2 2,5 2,8 0,3 -1,6 -3,10 -2,3 -5,8 -10,13l-6 6 19 0 0 9 -36 0 0 -5 16 -16c4,-4 6,-8 8,-10 1,-2 2,-5 2,-7 0,-2 -1,-3 -2,-5 -2,-1 -3,-2 -6,-2 -2,0 -3,1 -5,3 -1,1 -2,4 -2,6zm58 -4l-10 0c0,-4 2,-7 4,-9 3,-3 7,-5 12,-5 5,0 8,1 11,4 3,3 5,6 5,10 0,2 -1,4 -2,6 -2,2 -4,4 -6,5 3,1 6,3 8,5 1,2 2,5 2,9 0,4 -1,8 -5,12 -3,3 -8,5 -13,5 -5,0 -10,-2 -13,-5 -3,-3 -5,-7 -5,-13l10 0c0,3 1,5 3,6 1,2 3,2 5,2 3,0 4,0 6,-2 2,-1 2,-3 2,-5 0,-3 -1,-5 -3,-7 -2,-1 -5,-2 -9,-2l0 -9c3,0 4,0 6,-1 1,0 2,-1 2,-2 1,-1 1,-2 1,-3 0,-2 0,-3 -1,-4 -1,-1 -2,-1 -4,-1 -2,0 -3,0 -4,1 -1,1 -2,2 -2,3zm55 -13l24 0 0 10 -17 0 -2 9c0,0 1,0 2,0 0,0 1,0 1,0 5,0 9,1 12,5 3,3 5,7 5,12 0,5 -2,10 -5,13 -4,4 -8,6 -13,6 -5,0 -8,-2 -12,-4 -3,-3 -5,-6 -6,-11l11 0c0,2 1,3 3,4 1,1 3,1 4,1 2,0 4,-1 6,-2 1,-2 2,-4 2,-6 0,-3 -1,-5 -2,-6 -1,-2 -3,-3 -5,-3 -1,0 -2,0 -4,1 -1,1 -2,1 -3,3l-8 -2 7 -30zm68 -1l10 0 0 34 5 0 0 9 -5 0 0 11 -10 0 0 -11 -23 0 0 -9 23 -34zm0 34l0 -18 -12 18 12 0zm37 -33l35 0 0 6 -24 49 -9 -5 20 -40 -22 0 0 -10zm64 0l15 0 0 53 -10 0 0 -43 -11 0 6 -10zm57 0l15 0 0 53 -10 0 0 -43 -11 0 6 -10zm76 25c2,1 4,3 5,5 2,3 2,5 2,8 0,3 0,6 -2,9 -1,2 -3,4 -6,6 -3,1 -6,2 -10,2 -4,0 -8,-1 -10,-2 -3,-2 -5,-4 -6,-6 -2,-3 -2,-6 -2,-9 0,-3 0,-5 1,-7 2,-3 4,-5 6,-6 -2,-2 -3,-4 -4,-6 0,-1 -1,-3 -1,-5 0,-3 1,-6 2,-8 1,-2 3,-4 6,-5 2,-1 5,-2 8,-2 3,0 6,1 8,2 3,1 4,3 6,5 1,3 2,5 2,8 0,2 -1,3 -1,5 -1,2 -2,4 -4,6zm-11 -16c-2,0 -3,0 -4,1 -1,1 -2,3 -2,5 0,1 1,3 2,4 1,1 2,1 4,1 2,0 3,0 4,-1 1,-1 2,-3 2,-5 0,-1 -1,-3 -2,-4 -1,-1 -3,-1 -4,-1zm0 21c-2,0 -4,1 -6,2 -2,2 -2,3 -2,5 0,3 0,4 2,6 1,1 3,2 6,2 3,0 5,-1 6,-2 2,-1 2,-3 2,-5 0,-3 0,-4 -2,-6 -2,-1 -3,-2 -6,-2zm50 -17l-10 0c1,-4 2,-7 5,-9 3,-3 7,-5 12,-5 4,0 8,1 11,4 3,3 4,6 4,10 0,2 -1,4 -2,6 -1,2 -3,4 -6,5 4,1 6,3 8,5 2,2 3,5 3,9 0,4 -2,8 -6,12 -3,3 -7,5 -13,5 -5,0 -9,-2 -12,-5 -4,-3 -5,-7 -6,-13l10 0c1,3 2,5 3,6 2,2 3,2 6,2 2,0 4,0 5,-2 2,-1 3,-3 3,-5 0,-3 -1,-5 -3,-7 -2,-1 -5,-2 -9,-2l0 -9c2,0 4,0 5,-1 1,0 2,-1 3,-2 1,-1 1,-2 1,-3 0,-2 -1,-3 -2,-4 -1,-1 -2,-1 -4,-1 -1,0 -2,0 -4,1 -1,1 -2,2 -2,3z"/>
    <path class="fil3" d="M247 269c-6,-6 -14,-9 -22,-9 -18,0 -32,14 -32,32 0,5 2,11 4,15l-4 17 17 -5c4,3 10,4 15,4l0 0c17,0 32,-14 32,-31 0,-9 -4,-17 -10,-23l0 0zm-22 49c-5,0 -9,-1 -14,-4l0 0 -10 2 2 -9 0 -1c-3,-5 -4,-9 -4,-14 0,-15 11,-27 26,-27 7,0 13,3 18,8 5,5 8,12 8,19 0,14 -12,26 -26,26zm14 -20c-1,0 -4,-2 -5,-2 -1,-1 -1,-1 -2,0 0,1 -2,3 -2,3 -1,1 -1,1 -2,0 -5,-2 -8,-4 -11,-9 -1,-1 1,-1 2,-4 1,-1 1,-1 0,-2 0,0 -1,-4 -2,-6 -1,-1 -1,-1 -2,-1 0,0 -1,0 -1,0 -1,0 -2,0 -2,1 -1,1 -3,3 -3,7 0,3 3,7 3,8 0,0 6,8 14,12 5,2 6,2 9,2 2,-1 5,-2 5,-4 1,-2 1,-4 1,-4 0,0 -1,0 -2,-1z"/>
   </g>
  </g>
 </g>
</svg>
