<svg width="83" height="83" viewBox="0 0 83 83" fill="none" xmlns="http://www.w3.org/2000/svg">
<path d="M41.3434 82.6868C64.1767 82.6868 82.6868 64.1767 82.6868 41.3434C82.6868 18.5101 64.1767 0 41.3434 0C18.5101 0 0 18.5101 0 41.3434C0 64.1767 18.5101 82.6868 41.3434 82.6868Z" fill="#A6A6A6"/>
<path fill-rule="evenodd" clip-rule="evenodd" d="M41.3434 13.8796C50.7998 13.8796 58.4546 21.5439 58.4546 30.9909C58.4546 38.5408 53.5739 44.9467 46.7866 47.2155C58.7311 49.4176 68.1684 58.7501 70.5421 70.6183C63.0684 78.0825 52.7445 82.6963 41.3434 82.6963C29.9518 82.6963 19.6279 78.0825 12.1447 70.6183C14.5279 58.7501 23.9652 49.4176 35.9097 47.2155C29.1224 44.9467 24.2417 38.5408 24.2417 30.9909C24.2417 21.5439 31.8965 13.8796 41.3434 13.8796Z" fill="white"/>
</svg>
